<svg   id="chart"   width="1128"   height="191"   viewBox="0 0 1128 191"   xmlns="http://www.w3.org/2000/svg" >          <path d="  M0,191  h11.873684210526317  v-77.26047608030885  q0,-5.2631578947368425 -5.2631578947368425,-5.2631578947368425  h-1.3473684210526322  q-5.2631578947368425,0 -5.2631578947368425,5.2631578947368425  Z" fill="#444cf7" /> <path d="  M14.842105263157896,191  h11.873684210526317  v-64.39171616975713  q0,-5.2631578947368425 -5.2631578947368425,-5.2631578947368425  h-1.3473684210526322  q-5.2631578947368425,0 -5.2631578947368425,5.2631578947368425  Z" fill="#444cf7" /> <path d="  M29.68421052631579,191  h11.873684210526317  v-41.412568573976024  q0,-5.2631578947368425 -5.2631578947368425,-5.2631578947368425  h-1.3473684210526322  q-5.2631578947368425,0 -5.2631578947368425,5.2631578947368425  Z" fill="#444cf7" /> <path d="  M44.526315789473685,191  h11.873684210526317  v-50.5430228389862  q0,-5.2631578947368425 -5.2631578947368425,-5.2631578947368425  h-1.3473684210526322  q-5.2631578947368425,0 -5.2631578947368425,5.2631578947368425  Z" fill="#444cf7" /> <path d="  M59.36842105263158,191  h11.873684210526317  v-51.91791688791623  q0,-5.2631578947368425 -5.2631578947368425,-5.2631578947368425  h-1.3473684210526322  q-5.2631578947368425,0 -5.2631578947368425,5.2631578947368425  Z" fill="#444cf7" /> <path d="  M74.21052631578948,191  h11.873684210526317  v-149.87138684876308  q0,-5.2631578947368425 -5.2631578947368425,-5.2631578947368425  h-1.3473684210526322  q-5.2631578947368425,0 -5.2631578947368425,5.2631578947368425  Z" fill="#444cf7" /> <path d="  M89.05263157894737,191  h11.873684210526317  v-92.07274502072909  q0,-5.2631578947368425 -5.2631578947368425,-5.2631578947368425  h-1.3473684210526322  q-5.2631578947368425,0 -5.2631578947368425,5.2631578947368425  Z" fill="#444cf7" /> <path d="  M103.89473684210527,191  h11.873684210526317  v-119.13866860359838  q0,-5.2631578947368425 -5.2631578947368425,-5.2631578947368425  h-1.3473684210526322  q-5.2631578947368425,0 -5.2631578947368425,5.2631578947368425  Z" fill="#444cf7" /> <path d="  M118.73684210526316,191  h11.873684210526317  v-79.40424435576327  q0,-5.2631578947368425 -5.2631578947368425,-5.2631578947368425  h-1.3473684210526322  q-5.2631578947368425,0 -5.2631578947368425,5.2631578947368425  Z" fill="#444cf7" /> <path d="  M133.57894736842107,191  h11.873684210526317  v-97.00601734999103  q0,-5.2631578947368425 -5.2631578947368425,-5.2631578947368425  h-1.3473684210526322  q-5.2631578947368425,0 -5.2631578947368425,5.2631578947368425  Z" fill="#444cf7" /> <path d="  M148.42105263157896,191  h11.873684210526317  v-146.95905172646593  q0,-5.2631578947368425 -5.2631578947368425,-5.2631578947368425  h-1.3473684210526322  q-5.2631578947368425,0 -5.2631578947368425,5.2631578947368425  Z" fill="#444cf7" /> <path d="  M163.26315789473685,191  h11.873684210526317  v-75.69414827708133  q0,-5.2631578947368425 -5.2631578947368425,-5.2631578947368425  h-1.3473684210526322  q-5.2631578947368425,0 -5.2631578947368425,5.2631578947368425  Z" fill="#444cf7" /> <path d="  M178.10526315789474,191  h11.873684210526317  v-64.07187369452456  q0,-5.2631578947368425 -5.2631578947368425,-5.2631578947368425  h-1.3473684210526322  q-5.2631578947368425,0 -5.2631578947368425,5.2631578947368425  Z" fill="#444cf7" /> <path d="  M192.94736842105263,191  h11.873684210526317  v-48.007739129265396  q0,-5.2631578947368425 -5.2631578947368425,-5.2631578947368425  h-1.3473684210526322  q-5.2631578947368425,0 -5.2631578947368425,5.2631578947368425  Z" fill="#444cf7" /> <path d="  M207.78947368421055,191  h11.873684210526317  v-47.76139200017574  q0,-5.2631578947368425 -5.2631578947368425,-5.2631578947368425  h-1.3473684210526322  q-5.2631578947368425,0 -5.2631578947368425,5.2631578947368425  Z" fill="#444cf7" /> <path d="  M222.63157894736844,191  h11.873684210526317  v-97.71461718074869  q0,-5.2631578947368425 -5.2631578947368425,-5.2631578947368425  h-1.3473684210526322  q-5.2631578947368425,0 -5.2631578947368425,5.2631578947368425  Z" fill="#444cf7" /> <path d="  M237.47368421052633,191  h11.873684210526317  v-59.90004645490857  q0,-5.2631578947368425 -5.2631578947368425,-5.2631578947368425  h-1.3473684210526322  q-5.2631578947368425,0 -5.2631578947368425,5.2631578947368425  Z" fill="#444cf7" /> <path d="  M252.31578947368422,191  h11.873684210526317  v-68.36689424890332  q0,-5.2631578947368425 -5.2631578947368425,-5.2631578947368425  h-1.3473684210526322  q-5.2631578947368425,0 -5.2631578947368425,5.2631578947368425  Z" fill="#444cf7" /> <path d="  M267.15789473684214,191  h11.873684210526317  v-159.31889557345588  q0,-5.2631578947368425 -5.2631578947368425,-5.2631578947368425  h-1.3473684210526322  q-5.2631578947368425,0 -5.2631578947368425,5.2631578947368425  Z" fill="#444cf7" /> <path d="  M282,191  h11.873684210526317  v-109.39244660753843  q0,-5.2631578947368425 -5.2631578947368425,-5.2631578947368425  h-1.3473684210526322  q-5.2631578947368425,0 -5.2631578947368425,5.2631578947368425  Z" fill="#444cf7" /> <path d="  M296.8421052631579,191  h11.873684210526317  v-69.29758297878561  q0,-5.2631578947368425 -5.2631578947368425,-5.2631578947368425  h-1.3473684210526322  q-5.2631578947368425,0 -5.2631578947368425,5.2631578947368425  Z" fill="#444cf7" /> <path d="  M311.6842105263158,191  h11.873684210526317  v-129.4231992209193  q0,-5.2631578947368425 -5.2631578947368425,-5.2631578947368425  h-1.3473684210526322  q-5.2631578947368425,0 -5.2631578947368425,5.2631578947368425  Z" fill="#444cf7" /> <path d="  M326.5263157894737,191  h11.873684210526317  v-88.27920636203314  q0,-5.2631578947368425 -5.2631578947368425,-5.2631578947368425  h-1.3473684210526322  q-5.2631578947368425,0 -5.2631578947368425,5.2631578947368425  Z" fill="#444cf7" /> <path d="  M341.3684210526316,191  h11.873684210526317  v-68.12324289545327  q0,-5.2631578947368425 -5.2631578947368425,-5.2631578947368425  h-1.3473684210526322  q-5.2631578947368425,0 -5.2631578947368425,5.2631578947368425  Z" fill="#444cf7" /> <path d="  M356.2105263157895,191  h11.873684210526317  v-54.39472001388206  q0,-5.2631578947368425 -5.2631578947368425,-5.2631578947368425  h-1.3473684210526322  q-5.2631578947368425,0 -5.2631578947368425,5.2631578947368425  Z" fill="#444cf7" /> <path d="  M371.0526315789474,191  h11.873684210526317  v-143.2767870381773  q0,-5.2631578947368425 -5.2631578947368425,-5.2631578947368425  h-1.3473684210526322  q-5.2631578947368425,0 -5.2631578947368425,5.2631578947368425  Z" fill="#444cf7" /> <path d="  M385.89473684210526,191  h11.873684210526317  v-43.48827467633536  q0,-5.2631578947368425 -5.2631578947368425,-5.2631578947368425  h-1.3473684210526322  q-5.2631578947368425,0 -5.2631578947368425,5.2631578947368425  Z" fill="#444cf7" /> <path d="  M400.7368421052632,191  h11.873684210526317  v-70.7714257509256  q0,-5.2631578947368425 -5.2631578947368425,-5.2631578947368425  h-1.3473684210526322  q-5.2631578947368425,0 -5.2631578947368425,5.2631578947368425  Z" fill="#444cf7" /> <path d="  M415.5789473684211,191  h11.873684210526317  v-152.11940461050847  q0,-5.2631578947368425 -5.2631578947368425,-5.2631578947368425  h-1.3473684210526322  q-5.2631578947368425,0 -5.2631578947368425,5.2631578947368425  Z" fill="#444cf7" /> <path d="  M430.42105263157896,191  h11.873684210526317  v-32.95325882527016  q0,-5.2631578947368425 -5.2631578947368425,-5.2631578947368425  h-1.3473684210526322  q-5.2631578947368425,0 -5.2631578947368425,5.2631578947368425  Z" fill="#444cf7" /> <path d="  M445.2631578947369,191  h11.873684210526317  v-67.04928291088913  q0,-5.2631578947368425 -5.2631578947368425,-5.2631578947368425  h-1.3473684210526322  q-5.2631578947368425,0 -5.2631578947368425,5.2631578947368425  Z" fill="#444cf7" /> <path d="  M460.10526315789474,191  h11.873684210526317  v-70.11778183008846  q0,-5.2631578947368425 -5.2631578947368425,-5.2631578947368425  h-1.3473684210526322  q-5.2631578947368425,0 -5.2631578947368425,5.2631578947368425  Z" fill="#444cf7" /> <path d="  M474.94736842105266,191  h11.873684210526317  v-78.35489391622903  q0,-5.2631578947368425 -5.2631578947368425,-5.2631578947368425  h-1.3473684210526322  q-5.2631578947368425,0 -5.2631578947368425,5.2631578947368425  Z" fill="#444cf7" /> <path d="  M489.7894736842106,191  h11.873684210526317  v-115.17588452837074  q0,-5.2631578947368425 -5.2631578947368425,-5.2631578947368425  h-1.3473684210526322  q-5.2631578947368425,0 -5.2631578947368425,5.2631578947368425  Z" fill="#444cf7" /> <path d="  M504.63157894736844,191  h11.873684210526317  v-114.53814890478759  q0,-5.2631578947368425 -5.2631578947368425,-5.2631578947368425  h-1.3473684210526322  q-5.2631578947368425,0 -5.2631578947368425,5.2631578947368425  Z" fill="#444cf7" /> <path d="  M519.4736842105264,191  h11.873684210526317  v-104.29834506423208  q0,-5.2631578947368425 -5.2631578947368425,-5.2631578947368425  h-1.3473684210526322  q-5.2631578947368425,0 -5.2631578947368425,5.2631578947368425  Z" fill="#444cf7" /> <path d="  M534.3157894736843,191  h11.873684210526317  v-93.84814102028923  q0,-5.2631578947368425 -5.2631578947368425,-5.2631578947368425  h-1.3473684210526322  q-5.2631578947368425,0 -5.2631578947368425,5.2631578947368425  Z" fill="#444cf7" /> <path d="  M549.1578947368421,191  h11.873684210526317  v-122.76954198559753  q0,-5.2631578947368425 -5.2631578947368425,-5.2631578947368425  h-1.3473684210526322  q-5.2631578947368425,0 -5.2631578947368425,5.2631578947368425  Z" fill="#444cf7" /> <path d="  M564,191  h11.873684210526317  v-77.3798130740407  q0,-5.2631578947368425 -5.2631578947368425,-5.2631578947368425  h-1.3473684210526322  q-5.2631578947368425,0 -5.2631578947368425,5.2631578947368425  Z" fill="#444cf7" /> <path d="  M578.8421052631579,191  h11.873684210526317  v-122.78015212812676  q0,-5.2631578947368425 -5.2631578947368425,-5.2631578947368425  h-1.3473684210526322  q-5.2631578947368425,0 -5.2631578947368425,5.2631578947368425  Z" fill="#444cf7" /> <path d="  M593.6842105263158,191  h11.873684210526317  v-55.74474929913524  q0,-5.2631578947368425 -5.2631578947368425,-5.2631578947368425  h-1.3473684210526322  q-5.2631578947368425,0 -5.2631578947368425,5.2631578947368425  Z" fill="#444cf7" /> <path d="  M608.5263157894738,191  h11.873684210526317  v-105.49455579025556  q0,-5.2631578947368425 -5.2631578947368425,-5.2631578947368425  h-1.3473684210526322  q-5.2631578947368425,0 -5.2631578947368425,5.2631578947368425  Z" fill="#444cf7" /> <path d="  M623.3684210526316,191  h11.873684210526317  v-53.930626990184045  q0,-5.2631578947368425 -5.2631578947368425,-5.2631578947368425  h-1.3473684210526322  q-5.2631578947368425,0 -5.2631578947368425,5.2631578947368425  Z" fill="#444cf7" /> <path d="  M638.2105263157895,191  h11.873684210526317  v-46.16606655261629  q0,-5.2631578947368425 -5.2631578947368425,-5.2631578947368425  h-1.3473684210526322  q-5.2631578947368425,0 -5.2631578947368425,5.2631578947368425  Z" fill="#444cf7" /> <path d="  M653.0526315789474,191  h11.873684210526317  v-106.31186532744087  q0,-5.2631578947368425 -5.2631578947368425,-5.2631578947368425  h-1.3473684210526322  q-5.2631578947368425,0 -5.2631578947368425,5.2631578947368425  Z" fill="#444cf7" /> <path d="  M667.8947368421053,191  h11.873684210526317  v-63.26575545324628  q0,-5.2631578947368425 -5.2631578947368425,-5.2631578947368425  h-1.3473684210526322  q-5.2631578947368425,0 -5.2631578947368425,5.2631578947368425  Z" fill="#444cf7" /> <path d="  M682.7368421052632,191  h11.873684210526317  v-94.80283196105432  q0,-5.2631578947368425 -5.2631578947368425,-5.2631578947368425  h-1.3473684210526322  q-5.2631578947368425,0 -5.2631578947368425,5.2631578947368425  Z" fill="#444cf7" /> <path d="  M697.578947368421,191  h11.873684210526317  v-53.59640309010192  q0,-5.2631578947368425 -5.2631578947368425,-5.2631578947368425  h-1.3473684210526322  q-5.2631578947368425,0 -5.2631578947368425,5.2631578947368425  Z" fill="#444cf7" /> <path d="  M712.421052631579,191  h11.873684210526317  v-134.8709879625818  q0,-5.2631578947368425 -5.2631578947368425,-5.2631578947368425  h-1.3473684210526322  q-5.2631578947368425,0 -5.2631578947368425,5.2631578947368425  Z" fill="#444cf7" /> <path d="  M727.2631578947369,191  h11.873684210526317  v-137.07339087177377  q0,-5.2631578947368425 -5.2631578947368425,-5.2631578947368425  h-1.3473684210526322  q-5.2631578947368425,0 -5.2631578947368425,5.2631578947368425  Z" fill="#444cf7" /> <path d="  M742.1052631578948,191  h11.873684210526317  v-140.1086741362233  q0,-5.2631578947368425 -5.2631578947368425,-5.2631578947368425  h-1.3473684210526322  q-5.2631578947368425,0 -5.2631578947368425,5.2631578947368425  Z" fill="#444cf7" /> <path d="  M756.9473684210527,191  h11.873684210526317  v-37.918158655328064  q0,-5.2631578947368425 -5.2631578947368425,-5.2631578947368425  h-1.3473684210526322  q-5.2631578947368425,0 -5.2631578947368425,5.2631578947368425  Z" fill="#444cf7" /> <path d="  M771.7894736842105,191  h11.873684210526317  v-38.198895096485906  q0,-5.2631578947368425 -5.2631578947368425,-5.2631578947368425  h-1.3473684210526322  q-5.2631578947368425,0 -5.2631578947368425,5.2631578947368425  Z" fill="#444cf7" /> <path d="  M786.6315789473684,191  h11.873684210526317  v-159.84173148595946  q0,-5.2631578947368425 -5.2631578947368425,-5.2631578947368425  h-1.3473684210526322  q-5.2631578947368425,0 -5.2631578947368425,5.2631578947368425  Z" fill="#444cf7" /> <path d="  M801.4736842105264,191  h11.873684210526317  v-149.83101779075076  q0,-5.2631578947368425 -5.2631578947368425,-5.2631578947368425  h-1.3473684210526322  q-5.2631578947368425,0 -5.2631578947368425,5.2631578947368425  Z" fill="#444cf7" /> <path d="  M816.3157894736843,191  h11.873684210526317  v-51.273753535009014  q0,-5.2631578947368425 -5.2631578947368425,-5.2631578947368425  h-1.3473684210526322  q-5.2631578947368425,0 -5.2631578947368425,5.2631578947368425  Z" fill="#444cf7" /> <path d="  M831.1578947368422,191  h11.873684210526317  v-151.5218397025836  q0,-5.2631578947368425 -5.2631578947368425,-5.2631578947368425  h-1.3473684210526322  q-5.2631578947368425,0 -5.2631578947368425,5.2631578947368425  Z" fill="#444cf7" /> <path d="  M846,191  h11.873684210526317  v-87.95504510584846  q0,-5.2631578947368425 -5.2631578947368425,-5.2631578947368425  h-1.3473684210526322  q-5.2631578947368425,0 -5.2631578947368425,5.2631578947368425  Z" fill="#444cf7" /> <path d="  M860.8421052631579,191  h11.873684210526317  v-65.42069971465898  q0,-5.2631578947368425 -5.2631578947368425,-5.2631578947368425  h-1.3473684210526322  q-5.2631578947368425,0 -5.2631578947368425,5.2631578947368425  Z" fill="#444cf7" /> <path d="  M875.6842105263158,191  h11.873684210526317  v-105.06191704550722  q0,-5.2631578947368425 -5.2631578947368425,-5.2631578947368425  h-1.3473684210526322  q-5.2631578947368425,0 -5.2631578947368425,5.2631578947368425  Z" fill="#444cf7" /> <path d="  M890.5263157894738,191  h11.873684210526317  v-41.10710151506405  q0,-5.2631578947368425 -5.2631578947368425,-5.2631578947368425  h-1.3473684210526322  q-5.2631578947368425,0 -5.2631578947368425,5.2631578947368425  Z" fill="#444cf7" /> <path d="  M905.3684210526317,191  h11.873684210526317  v-67.34701713570382  q0,-5.2631578947368425 -5.2631578947368425,-5.2631578947368425  h-1.3473684210526322  q-5.2631578947368425,0 -5.2631578947368425,5.2631578947368425  Z" fill="#444cf7" /> <path d="  M920.2105263157895,191  h11.873684210526317  v-68.39154993889969  q0,-5.2631578947368425 -5.2631578947368425,-5.2631578947368425  h-1.3473684210526322  q-5.2631578947368425,0 -5.2631578947368425,5.2631578947368425  Z" fill="#444cf7" /> <path d="  M935.0526315789474,191  h11.873684210526317  v-54.981705148896346  q0,-5.2631578947368425 -5.2631578947368425,-5.2631578947368425  h-1.3473684210526322  q-5.2631578947368425,0 -5.2631578947368425,5.2631578947368425  Z" fill="#444cf7" /> <path d="  M949.8947368421053,191  h11.873684210526317  v-116.39638329716664  q0,-5.2631578947368425 -5.2631578947368425,-5.2631578947368425  h-1.3473684210526322  q-5.2631578947368425,0 -5.2631578947368425,5.2631578947368425  Z" fill="#444cf7" /> <path d="  M964.7368421052632,191  h11.873684210526317  v-164.09874074130946  q0,-5.2631578947368425 -5.2631578947368425,-5.2631578947368425  h-1.3473684210526322  q-5.2631578947368425,0 -5.2631578947368425,5.2631578947368425  Z" fill="#444cf7" /> <path d="  M979.5789473684212,191  h11.873684210526317  v-142.88646279776694  q0,-5.2631578947368425 -5.2631578947368425,-5.2631578947368425  h-1.3473684210526322  q-5.2631578947368425,0 -5.2631578947368425,5.2631578947368425  Z" fill="#444cf7" /> <path d="  M994.421052631579,191  h11.873684210526317  v-53.55763929794174  q0,-5.2631578947368425 -5.2631578947368425,-5.2631578947368425  h-1.3473684210526322  q-5.2631578947368425,0 -5.2631578947368425,5.2631578947368425  Z" fill="#444cf7" /> <path d="  M1009.2631578947369,191  h11.873684210526317  v-47.52530175705957  q0,-5.2631578947368425 -5.2631578947368425,-5.2631578947368425  h-1.3473684210526322  q-5.2631578947368425,0 -5.2631578947368425,5.2631578947368425  Z" fill="#444cf7" /> <path d="  M1024.1052631578948,191  h11.873684210526317  v-101.4768228487469  q0,-5.2631578947368425 -5.2631578947368425,-5.2631578947368425  h-1.3473684210526322  q-5.2631578947368425,0 -5.2631578947368425,5.2631578947368425  Z" fill="#444cf7" /> <path d="  M1038.9473684210527,191  h11.873684210526317  v-117.79248143095265  q0,-5.2631578947368425 -5.2631578947368425,-5.2631578947368425  h-1.3473684210526322  q-5.2631578947368425,0 -5.2631578947368425,5.2631578947368425  Z" fill="#444cf7" /> <path d="  M1053.7894736842106,191  h11.873684210526317  v-96.40937095034738  q0,-5.2631578947368425 -5.2631578947368425,-5.2631578947368425  h-1.3473684210526322  q-5.2631578947368425,0 -5.2631578947368425,5.2631578947368425  Z" fill="#444cf7" /> <path d="  M1068.6315789473686,191  h11.873684210526317  v-42.89723674090104  q0,-5.2631578947368425 -5.2631578947368425,-5.2631578947368425  h-1.3473684210526322  q-5.2631578947368425,0 -5.2631578947368425,5.2631578947368425  Z" fill="#444cf7" /> <path d="  M1083.4736842105265,191  h11.873684210526317  v-61.53939104998005  q0,-5.2631578947368425 -5.2631578947368425,-5.2631578947368425  h-1.3473684210526322  q-5.2631578947368425,0 -5.2631578947368425,5.2631578947368425  Z" fill="#444cf7" /> <path d="  M1098.3157894736842,191  h11.873684210526317  v-81.14116089473188  q0,-5.2631578947368425 -5.2631578947368425,-5.2631578947368425  h-1.3473684210526322  q-5.2631578947368425,0 -5.2631578947368425,5.2631578947368425  Z" fill="#444cf7" /> <path d="  M1113.157894736842,191  h11.873684210526317  v-109.69589474812716  q0,-5.2631578947368425 -5.2631578947368425,-5.2631578947368425  h-1.3473684210526322  q-5.2631578947368425,0 -5.2631578947368425,5.2631578947368425  Z" fill="#444cf7" /> </svg>